<svg viewBox="0 0 140.28 31.48" xmlns="http://www.w3.org/2000/svg"><g fill="#fff"><path d="m39.7.75-11.52 30.65-8.29-18.86-8.21 18.94-11.68-30.73h5.74l6.06 16.25 8.09-16.85 7.85 16.85 6.38-16.25z"/><path d="m52 30.24h-5.64l-.08-21.36-3.19 2.55-1.6-3.51 10.51-7.33z"/><path d="m75.81 30.24h-21.4l14.27-16.78a6.82 6.82 0 0 0 2-4.1 4.14 4.14 0 0 0 -1.45-3.11 4.61 4.61 0 0 0 -3.23-1.36 5 5 0 0 0 -3.69 1.38 4.84 4.84 0 0 0 -1.41 3.64h-5.22q1-9.72 10-9.72a13.34 13.34 0 0 1 2 .12 9.27 9.27 0 0 1 5.66 3.13 8.58 8.58 0 0 1 2.39 5.92 9.18 9.18 0 0 1 -2.23 6.13l-8.5 10h10.81z"/><path d="m84.74 26.26v4.62h-5.58v-4.54z"/><path d="m95.1 1.7v5.3h-5.1v-5.3zm.12 28.54h-5.06v-18.89h5.06z"/><path d="m119.54 21.19a8.85 8.85 0 0 1 -3.13 6.92 10.94 10.94 0 0 1 -14.53 0 9 9 0 0 1 -3.23-6.94 9.11 9.11 0 0 1 3.15-7 11.18 11.18 0 0 1 14.59 0 9.09 9.09 0 0 1 3.15 7.02zm-5.06 0a4.84 4.84 0 0 0 -1.58-3.68 5.28 5.28 0 0 0 -3.8-1.5 5.5 5.5 0 0 0 -3.85 1.5 4.83 4.83 0 0 0 -1.62 3.72 4.59 4.59 0 0 0 1.72 3.59 5.59 5.59 0 0 0 7.51 0 4.65 4.65 0 0 0 1.62-3.63z"/><path d="m138.28 0h2v31h-2z"/></g></svg>